<svg width="500" height="500" viewBox="0 0 500 500" fill="none" xmlns="http://www.w3.org/2000/svg">
  <path fill-rule="evenodd" clip-rule="evenodd" d="M249.615 138.968C275.1 138.968 298.655 147.551 317.449 161.99C319.016 134.94 316.917 103.734 304.178 79.5511C286.775 46.6458 256.269 35.7338 238.17 32.1408C243.064 67.3386 248.284 106.831 234.88 139.93C239.701 139.301 244.625 138.968 249.615 138.968V138.968ZM249.984 232.851C259.578 232.851 267.351 240.618 267.351 250.211C267.351 259.81 259.578 267.577 249.984 267.577C240.384 267.577 232.617 259.81 232.617 250.211C232.617 240.618 240.384 232.851 249.984 232.851ZM41.5881 298.172C21.6806 255.54 17.5733 206.781 30.1856 161.318C36.3617 166.163 44.2255 171.166 52.5913 176.023C45.5865 206.938 47.2258 239.124 57.2007 269.011C61.55 263.053 66.4981 257.427 71.8878 252.135C66.4013 230.401 65.6754 207.519 69.8916 185.471C78.4873 189.935 86.7624 193.964 93.6342 197.163C92.0009 209.285 92.1219 221.679 93.9729 233.789C110.965 221.691 129.892 211.94 147.876 204.404C158.159 181.914 175.593 163.52 197.418 151.943C230.821 117.973 214.851 48.3092 208.929 5C249.301 5 286.085 15.8817 311.618 45.6901C358.879 49.5431 403.564 70.4295 436.864 104.321C429.581 107.248 421.318 111.555 412.934 116.376C389.506 94.7093 360.567 79.9866 329.463 73.7443C332.554 80.5128 335.04 87.608 337 94.927C358.698 101.024 379.017 111.87 396.093 126.635C387.933 131.843 380.305 136.996 374.099 141.345C364.384 133.845 353.538 127.73 342.081 123.278C344.222 144.388 343.188 166.061 340.672 185.907C355.577 206.769 361.765 229.458 361.366 254.905C374.075 301.015 442.411 321.907 483 338.541C461.949 373.624 434.595 400.329 395.325 407.243C368.358 445.52 328.35 473.247 282.891 485C283.998 477.227 284.397 467.918 284.421 458.246C314.431 448.931 341.295 431.638 362.116 408.362C354.742 407.6 347.344 406.142 340.018 404.128C324.073 419.425 304.867 431.275 283.956 438.539C283.526 428.867 282.873 419.685 282.208 412.131C293.205 407.618 303.597 401.539 312.943 394.178C293.882 385.504 275.892 373.945 260.364 362.095C235.642 364.424 210.992 358.599 189.965 345.358C143.95 333.581 91.7832 381.953 57.3519 408.701C36.4706 373.933 27.9898 335.438 41.5881 298.172V298.172ZM249.984 181.648C287.809 181.648 318.55 212.388 318.55 250.211C318.55 288.04 287.809 318.78 249.984 318.78C212.153 318.78 181.412 288.04 181.412 250.211C181.412 212.388 212.153 181.648 249.984 181.648ZM249.984 206.999C226.096 206.999 206.764 226.33 206.764 250.211C206.764 274.098 226.096 293.429 249.984 293.429C273.866 293.429 293.199 274.098 293.199 250.211C293.199 226.33 273.866 206.999 249.984 206.999ZM292.63 353.978C315.223 368.815 343.303 382.655 370.584 383.617C407.744 384.984 432.43 364.091 444.709 350.149C411.706 336.811 374.909 321.574 352.982 293.429C341.67 320.643 319.845 342.63 292.63 353.978ZM138.73 236.444C114.509 248.65 88.4562 266.15 74.0171 289.135C54.1943 320.74 60.0438 352.611 65.9355 370.013C94.0153 348.219 125.688 323.903 161.021 318.943C146.479 300.047 137.829 276.396 137.829 250.78C137.829 245.922 138.131 241.132 138.73 236.444V236.444ZM249.615 164.319C201.809 164.319 163.18 202.976 163.18 250.78C163.18 298.619 201.743 337.241 249.615 337.241C297.421 337.241 336.08 298.583 336.08 250.78C336.08 202.976 297.391 164.319 249.615 164.319V164.319Z" fill="#bada55"/>
</svg>
